<?xml version="1.0"?>
<svg xmlns="http://www.w3.org/2000/svg" height="512px" version="1.1" viewBox="0 0 937.5 937.5" width="512px" class=""><g><g id="surface1">
<path d="M 62.5 687.5 L 93.75 687.5 L 93.75 656.25 L 62.5 656.25 C 45.238281 656.25 31.25 642.261719 31.25 625 L 31.25 62.5 C 31.25 45.238281 45.238281 31.25 62.5 31.25 L 750 31.25 C 767.261719 31.25 781.25 45.238281 781.25 62.5 L 781.25 93.75 L 812.5 93.75 L 812.5 62.5 C 812.5 27.984375 784.515625 0 750 0 L 62.5 0 C 27.984375 0 0 27.984375 0 62.5 L 0 625 C 0 659.515625 27.984375 687.5 62.5 687.5 Z M 62.5 687.5 " data-original="#000000" class="active-path" data-old_color="#000000" fill="#ff4952"/>
<path d="M 62.5 62.5 L 93.75 62.5 L 93.75 93.75 L 62.5 93.75 Z M 62.5 62.5 " data-original="#000000" class="active-path" data-old_color="#000000" fill="#ff4952"/>
<path d="M 125 62.5 L 156.25 62.5 L 156.25 93.75 L 125 93.75 Z M 125 62.5 " data-original="#000000" class="active-path" data-old_color="#000000" fill="#ff4952"/>
<path d="M 187.5 62.5 L 218.75 62.5 L 218.75 93.75 L 187.5 93.75 Z M 187.5 62.5 " data-original="#000000" class="active-path" data-old_color="#000000" fill="#ff4952"/>
<path d="M 875 125 L 187.5 125 C 152.984375 125 125 152.984375 125 187.5 L 125 750 C 125 784.515625 152.984375 812.5 187.5 812.5 L 875 812.5 C 909.515625 812.5 937.5 784.515625 937.5 750 L 937.5 187.5 C 937.5 152.984375 909.515625 125 875 125 Z M 906.25 750 C 906.25 767.261719 892.261719 781.25 875 781.25 L 187.5 781.25 C 170.238281 781.25 156.25 767.261719 156.25 750 L 156.25 187.5 C 156.25 170.238281 170.238281 156.25 187.5 156.25 L 875 156.25 C 892.261719 156.25 906.25 170.238281 906.25 187.5 Z M 906.25 750 " data-original="#000000" class="active-path" data-old_color="#000000" fill="#ff4952"/>
<path d="M 187.5 187.5 L 218.75 187.5 L 218.75 218.75 L 187.5 218.75 Z M 187.5 187.5 " data-original="#000000" class="active-path" data-old_color="#000000" fill="#ff4952"/>
<path d="M 250 187.5 L 281.25 187.5 L 281.25 218.75 L 250 218.75 Z M 250 187.5 " data-original="#000000" class="active-path" data-old_color="#000000" fill="#ff4952"/>
<path d="M 312.5 187.5 L 343.75 187.5 L 343.75 218.75 L 312.5 218.75 Z M 312.5 187.5 " data-original="#000000" class="active-path" data-old_color="#000000" fill="#ff4952"/>
<path d="M 187.5 250 L 875 250 L 875 281.25 L 187.5 281.25 Z M 187.5 250 " data-original="#000000" class="active-path" data-old_color="#000000" fill="#ff4952"/>
<path d="M 218.75 515.625 L 312.5 515.625 L 312.5 546.875 L 218.75 546.875 Z M 218.75 515.625 " data-original="#000000" class="active-path" data-old_color="#000000" fill="#ff4952"/>
<path d="M 218.75 593.75 L 546.875 593.75 L 546.875 625 L 218.75 625 Z M 218.75 593.75 " data-original="#000000" class="active-path" data-old_color="#000000" fill="#ff4952"/>
<path d="M 218.75 671.875 L 390.625 671.875 L 390.625 703.125 L 218.75 703.125 Z M 218.75 671.875 " data-original="#000000" class="active-path" data-old_color="#000000" fill="#ff4952"/>
<path d="M 500 437.5 L 656.25 437.5 L 656.25 468.75 L 500 468.75 Z M 500 437.5 " data-original="#000000" class="active-path" data-old_color="#000000" fill="#ff4952"/>
<path d="M 734.375 593.75 L 843.75 593.75 L 843.75 625 L 734.375 625 Z M 734.375 593.75 " data-original="#000000" class="active-path" data-old_color="#000000" fill="#ff4952"/>
<path d="M 593.75 671.875 L 843.75 671.875 L 843.75 703.125 L 593.75 703.125 Z M 593.75 671.875 " data-original="#000000" class="active-path" data-old_color="#000000" fill="#ff4952"/>
<path d="M 359.375 515.625 L 593.75 515.625 L 593.75 546.875 L 359.375 546.875 Z M 359.375 515.625 " data-original="#000000" class="active-path" data-old_color="#000000" fill="#ff4952"/>
<path d="M 500 359.375 L 609.375 359.375 L 609.375 390.625 L 500 390.625 Z M 500 359.375 " data-original="#000000" class="active-path" data-old_color="#000000" fill="#ff4952"/>
<path d="M 640.625 359.375 L 843.75 359.375 L 843.75 390.625 L 640.625 390.625 Z M 640.625 359.375 " data-original="#000000" class="active-path" data-old_color="#000000" fill="#ff4952"/>
<path d="M 421.875 671.875 L 562.5 671.875 L 562.5 703.125 L 421.875 703.125 Z M 421.875 671.875 " data-original="#000000" class="active-path" data-old_color="#000000" fill="#ff4952"/>
<path d="M 625 515.625 L 843.75 515.625 L 843.75 546.875 L 625 546.875 Z M 625 515.625 " data-original="#000000" class="active-path" data-old_color="#000000" fill="#ff4952"/>
<path d="M 687.5 437.5 L 843.75 437.5 L 843.75 468.75 L 687.5 468.75 Z M 687.5 437.5 " data-original="#000000" class="active-path" data-old_color="#000000" fill="#ff4952"/>
<path d="M 578.125 593.75 L 703.125 593.75 L 703.125 625 L 578.125 625 Z M 578.125 593.75 " data-original="#000000" class="active-path" data-old_color="#000000" fill="#ff4952"/>
<path d="M 270.203125 348.328125 L 223.328125 395.203125 C 217.230469 401.308594 217.230469 411.191406 223.328125 417.296875 L 270.203125 464.171875 L 292.296875 442.078125 L 256.46875 406.25 L 292.296875 370.421875 Z M 270.203125 348.328125 " data-original="#000000" class="active-path" data-old_color="#000000" fill="#ff4952"/>
<path d="M 417.296875 464.171875 L 464.171875 417.296875 C 470.269531 411.191406 470.269531 401.308594 464.171875 395.203125 L 417.296875 348.328125 L 395.203125 370.421875 L 431.03125 406.25 L 395.203125 442.078125 Z M 417.296875 464.171875 " data-original="#000000" class="active-path" data-old_color="#000000" fill="#ff4952"/>
<path d="M 312.960938 464.964844 L 344.226562 339.964844 L 374.535156 347.546875 L 343.265625 472.539062 Z M 312.960938 464.964844 " data-original="#000000" class="active-path" data-old_color="#000000" fill="#ff4952"/>
<path d="M 703.125 843.75 L 359.375 843.75 C 355.230469 843.75 351.257812 845.398438 348.328125 848.328125 L 317.078125 879.578125 C 310.980469 885.683594 310.980469 895.566406 317.078125 901.671875 L 348.328125 932.921875 C 351.257812 935.851562 355.230469 937.5 359.375 937.5 L 703.125 937.5 C 729.007812 937.5 750 916.507812 750 890.625 C 750 864.742188 729.007812 843.75 703.125 843.75 Z M 656.25 906.25 L 365.84375 906.25 L 350.21875 890.625 L 365.84375 875 L 656.25 875 Z M 703.125 906.25 L 687.5 906.25 L 687.5 875 L 703.125 875 C 711.757812 875 718.75 881.992188 718.75 890.625 C 718.75 899.257812 711.757812 906.25 703.125 906.25 Z M 703.125 906.25 " data-original="#000000" class="active-path" data-old_color="#000000" fill="#ff4952"/>
</g></g> </svg>
